<?xml version="1.0" standalone="no"?><!DOCTYPE svg PUBLIC "-//W3C//DTD SVG 1.1//EN" "http://www.w3.org/Graphics/SVG/1.1/DTD/svg11.dtd"><svg t="1677406994882" class="icon" viewBox="0 0 1024 1024" version="1.1" xmlns="http://www.w3.org/2000/svg" p-id="17666" xmlns:xlink="http://www.w3.org/1999/xlink" width="200" height="200"><path d="M1022.735863 897.156089a92.767665 92.767665 0 0 1-13.730843 66.442536 76.8661 76.8661 0 0 1-52.046141 35.683809L825.312756 1022.658657a69.514313 69.514313 0 0 1-58.681179-15.358885 88.651484 88.651484 0 0 1-32.37653-58.445676L622.37069 154.02156a100.201365 100.201365 0 0 1 14.18137-65.82818 75.770499 75.770499 0 0 1 22.526365-23.376223 88.200957 88.200957 0 0 1 30.205807-12.921942l130.530044-23.376223A68.654216 68.654216 0 0 1 879.068854 44.512711a91.590151 91.590151 0 0 1 31.803131 59.060032zM511.612651 0.074337a72.145802 72.145802 0 0 1 55.937059 25.833644 91.067948 91.067948 0 0 1 22.99737 62.746165V910.446644a91.067948 91.067948 0 0 1-22.99737 62.746165 72.145802 72.145802 0 0 1-55.937059 25.833644H397.557571a72.145802 72.145802 0 0 1-55.937059-25.833644 91.067948 91.067948 0 0 1-22.99737-62.746165V88.664385a108.443967 108.443967 0 0 1 17.621761-62.746164A58.455916 58.455916 0 0 1 387.727885 0.084576z m26.765417 620.120099a21.983684 21.983684 0 0 0 18.645686-11.693231 54.943851 54.943851 0 0 0 0-55.978016 22.342058 22.342058 0 0 0-18.645686-11.068636H424.322988a22.342058 22.342058 0 0 0-18.645686 11.068636 54.943851 54.943851 0 0 0 0 55.978016 21.983684 21.983684 0 0 0 18.645686 11.693231z m0-156.384166a21.983684 21.983684 0 0 0 18.645686-11.693231 51.329393 51.329393 0 0 0 7.669203-28.915661 49.302021 49.302021 0 0 0-7.669203-28.301305 22.065598 22.065598 0 0 0-18.645686-11.068637H424.322988a22.342058 22.342058 0 0 0-18.645686 11.068637 48.452162 48.452162 0 0 0-7.669203 28.301305 51.329393 51.329393 0 0 0 7.669203 28.915661 22.239665 22.239665 0 0 0 18.645686 11.693231zM194.042107 0.074337a73.405231 73.405231 0 0 1 56.397825 25.833644 89.951869 89.951869 0 0 1 23.55029 62.746165V910.446644a89.439907 89.439907 0 0 1-23.55029 62.746165 73.917194 73.917194 0 0 1-56.397825 25.833644H79.987027a73.405231 73.405231 0 0 1-56.397825-25.833644 89.439907 89.439907 0 0 1-23.550291-62.746165V88.664385a89.439907 89.439907 0 0 1 23.550291-62.746164A73.917194 73.917194 0 0 1 79.987027 0.074337h114.05508zM84.338711 307.671845a22.987131 22.987131 0 0 0-19.679851 11.068637 54.943851 54.943851 0 0 0 0 55.978016 23.232873 23.232873 0 0 0 19.679851 11.693231h105.249319a21.635549 21.635549 0 0 0 19.219085-11.693231 52.097338 52.097338 0 0 0 7.167479-27.645993 50.776474 50.776474 0 0 0-7.167479-28.301305 21.727703 21.727703 0 0 0-19.219085-11.068637z m109.703396 386.224761a21.993923 21.993923 0 0 0 19.219084-11.068637 49.72183 49.72183 0 0 0 7.16748-27.072594 47.827568 47.827568 0 0 0-7.16748-27.645993 22.04512 22.04512 0 0 0-19.219084-10.454281H84.338711a23.222634 23.222634 0 0 0-19.679851 10.454281 52.721932 52.721932 0 0 0 0 54.749305 23.130481 23.130481 0 0 0 19.679851 11.068636z m0-151.213342a21.993923 21.993923 0 0 0 19.219084-11.068637 52.035902 52.035902 0 0 0 7.16748-28.301305 50.776474 50.776474 0 0 0-7.16748-28.301305 21.727703 21.727703 0 0 0-19.219084-11.068637H84.338711a22.987131 22.987131 0 0 0-19.679851 11.068637 56.080409 56.080409 0 0 0 0 56.60261 23.406941 23.406941 0 0 0 19.679851 11.068637z" fill="#ffffff" p-id="17667"></path></svg>